HIERARCHY
ROOT Hips
{
	OFFSET 0.000000 83.214638 0.000000
	CHANNELS 6 Xposition Yposition Zposition Xrotation Yrotation Zrotation
	JOINT Pelvis
	{
		OFFSET 0.000000 0.000000 0.000000
		CHANNELS 3 Xrotation Yrotation Zrotation
		JOINT LeftUpLeg
		{
			OFFSET 8.479700 -4.795502 -0.379100
			CHANNELS 3 Xrotation Yrotation Zrotation
			JOINT LeftLeg
			{
				OFFSET 0.024144 -32.555107 0.112900
				CHANNELS 3 Xrotation Yrotation Zrotation
				JOINT LeftFoot
				{
					OFFSET -0.024144 -32.638630 -3.012600
					CHANNELS 3 Xrotation Yrotation Zrotation
					JOINT LeftToeBase
					{
						OFFSET 0.970200 -13.225400 11.864200
						CHANNELS 3 Xrotation Yrotation Zrotation
						End Site
						{
							OFFSET 0.000000 12.319262 0.000000
						}
					}
					JOINT LFootTongue
					{
						OFFSET 1.142400 -1.059800 6.665200
						CHANNELS 3 Xrotation Yrotation Zrotation
						End Site
						{
							OFFSET 0.000000 12.319262 0.000000
						}
					}
				}
				JOINT LeftPantLeg
				{
					OFFSET 0.918482 -16.533964 -2.284700
					CHANNELS 3 Xrotation Yrotation Zrotation
					End Site
					{
						OFFSET 0.350399 24.744368 0.000000
					}
				}
			}
		}
		JOINT RightUpLeg
		{
			OFFSET -8.479700 -4.795502 -0.379100
			CHANNELS 3 Xrotation Yrotation Zrotation
			JOINT RightLeg
			{
				OFFSET -0.023144 -32.555092 0.112900
				CHANNELS 3 Xrotation Yrotation Zrotation
				JOINT RightFoot
				{
					OFFSET 0.023144 -32.638641 -3.012700
					CHANNELS 3 Xrotation Yrotation Zrotation
					JOINT RightToeBase
					{
						OFFSET -0.970200 -13.225400 11.864200
						CHANNELS 3 Xrotation Yrotation Zrotation
						End Site
						{
							OFFSET 0.000000 12.319244 0.000000
						}
					}
					JOINT RFootTongue
					{
						OFFSET -1.142200 -1.059800 6.665200
						CHANNELS 3 Xrotation Yrotation Zrotation
						End Site
						{
							OFFSET 0.000000 12.319243 0.000000
						}
					}
				}
				JOINT RightPantLeg
				{
					OFFSET -0.919482 -16.533978 -2.284800
					CHANNELS 3 Xrotation Yrotation Zrotation
					End Site
					{
						OFFSET -0.350400 24.744419 0.000000
					}
				}
			}
		}
	}
	JOINT Spine
	{
		OFFSET 0.000000 7.722000 1.166200
		CHANNELS 3 Xrotation Yrotation Zrotation
		JOINT Spine1
		{
			OFFSET 0.000000 12.024101 0.248800
			CHANNELS 3 Xrotation Yrotation Zrotation
			JOINT Spine2
			{
				OFFSET 0.000000 11.502998 -0.491200
				CHANNELS 3 Xrotation Yrotation Zrotation
				JOINT Neck
				{
					OFFSET 0.000000 18.430702 -3.123100
					CHANNELS 3 Xrotation Yrotation Zrotation
					JOINT Head
					{
						OFFSET 0.000000 9.051102 1.034000
						CHANNELS 3 Xrotation Yrotation Zrotation
						JOINT HairB
						{
							OFFSET 0.208400 24.786102 24.822300
							CHANNELS 3 Xrotation Yrotation Zrotation
							End Site
							{
								OFFSET 0.000000 32.263779 0.000000
							}
						}
						JOINT HairA
						{
							OFFSET -7.081100 24.428299 23.196600
							CHANNELS 3 Xrotation Yrotation Zrotation
							End Site
							{
								OFFSET 0.000000 32.263779 0.000000
							}
						}
						JOINT Hat
						{
							OFFSET 16.728800 15.048294 -15.439601
							CHANNELS 3 Xrotation Yrotation Zrotation
							End Site
							{
								OFFSET 0.000000 32.263779 0.000000
							}
						}
					}
				}
				JOINT LeftShoulder
				{
					OFFSET 6.197800 13.665199 -4.064700
					CHANNELS 3 Xrotation Yrotation Zrotation
					JOINT LeftArm
					{
						OFFSET 7.778100 -0.187103 -1.709300
						CHANNELS 3 Xrotation Yrotation Zrotation
						JOINT LeftForeArm
						{
							OFFSET 22.049376 0.000000 0.000000
							CHANNELS 3 Xrotation Yrotation Zrotation
							JOINT LeftHand
							{
								OFFSET 23.009392 0.000000 0.000000
								CHANNELS 3 Xrotation Yrotation Zrotation
								JOINT LeftHandThumb1
								{
									OFFSET 3.507191 -2.063065 3.133727
									CHANNELS 3 Xrotation Yrotation Zrotation
									JOINT LeftHandThumb2
									{
										OFFSET 3.101337 -1.790558 1.790558
										CHANNELS 3 Xrotation Yrotation Zrotation
										JOINT LeftHandThumb3
										{
											OFFSET 3.058640 -1.765907 1.765906
											CHANNELS 3 Xrotation Yrotation Zrotation
											End Site
											{
												OFFSET -0.415260 3.926476 -0.049563
											}
										}
									}
								}
								JOINT LeftHandIndex1
								{
									OFFSET 11.334419 -0.901459 3.706815
									CHANNELS 3 Xrotation Yrotation Zrotation
									JOINT LeftHandIndex2
									{
										OFFSET 3.283112 0.000000 0.000000
										CHANNELS 3 Xrotation Yrotation Zrotation
										JOINT LeftHandIndex3
										{
											OFFSET 3.323853 0.000000 0.000000
											CHANNELS 3 Xrotation Yrotation Zrotation
											End Site
											{
												OFFSET -1.135597 3.097809 0.402452
											}
										}
									}
								}
								JOINT LeftHandMiddle1
								{
									OFFSET 11.335861 0.000000 0.000000
									CHANNELS 3 Xrotation Yrotation Zrotation
									JOINT LeftHandMiddle2
									{
										OFFSET 3.410492 0.000000 0.000000
										CHANNELS 3 Xrotation Yrotation Zrotation
										JOINT LeftHandMiddle3
										{
											OFFSET 3.312172 0.000000 0.000000
											CHANNELS 3 Xrotation Yrotation Zrotation
											End Site
											{
												OFFSET -1.150200 3.080154 0.400270
											}
										}
									}
								}
								JOINT LeftHandRing1
								{
									OFFSET 11.514786 -0.013176 -3.003090
									CHANNELS 3 Xrotation Yrotation Zrotation
									JOINT LeftHandRing2
									{
										OFFSET 3.053307 0.000000 0.000000
										CHANNELS 3 Xrotation Yrotation Zrotation
										JOINT LeftHandRing3
										{
											OFFSET 3.295807 0.000000 0.000000
											CHANNELS 3 Xrotation Yrotation Zrotation
											End Site
											{
												OFFSET -1.281006 3.013344 0.375733
											}
										}
									}
								}
								JOINT LeftHandPinky1
								{
									OFFSET 10.518692 -0.960396 -5.730441
									CHANNELS 3 Xrotation Yrotation Zrotation
									JOINT LeftHandPinky2
									{
										OFFSET 2.861649 0.000000 0.000000
										CHANNELS 3 Xrotation Yrotation Zrotation
										JOINT LeftHandPinky3
										{
											OFFSET 2.863380 0.000000 0.000000
											CHANNELS 3 Xrotation Yrotation Zrotation
											End Site
											{
												OFFSET -0.843597 2.711159 0.369971
											}
										}
									}
								}
							}
							JOINT LSleeve
							{
								OFFSET 6.676277 -0.344902 -1.011730
								CHANNELS 3 Xrotation Yrotation Zrotation
								End Site
								{
									OFFSET 0.000000 14.885353 0.000000
								}
							}
						}
					}
				}
				JOINT RightShoulder
				{
					OFFSET -6.197800 13.665199 -4.064700
					CHANNELS 3 Xrotation Yrotation Zrotation
					JOINT RightArm
					{
						OFFSET -7.778100 -0.187103 -1.709300
						CHANNELS 3 Xrotation Yrotation Zrotation
						JOINT RightForeArm
						{
							OFFSET -22.049376 0.000000 0.000000
							CHANNELS 3 Xrotation Yrotation Zrotation
							JOINT RightHand
							{
								OFFSET -23.009392 0.000000 0.000000
								CHANNELS 3 Xrotation Yrotation Zrotation
								JOINT RightHandThumb1
								{
									OFFSET -3.507191 -2.063065 3.133727
									CHANNELS 3 Xrotation Yrotation Zrotation
									JOINT RightHandThumb2
									{
										OFFSET -3.101337 -1.790558 1.790558
										CHANNELS 3 Xrotation Yrotation Zrotation
										JOINT RightHandThumb3
										{
											OFFSET -3.058640 -1.765907 1.765906
											CHANNELS 3 Xrotation Yrotation Zrotation
											End Site
											{
												OFFSET 0.415260 3.926476 -0.049563
											}
										}
									}
								}
								JOINT RightHandIndex1
								{
									OFFSET -11.334419 -0.901459 3.706815
									CHANNELS 3 Xrotation Yrotation Zrotation
									JOINT RightHandIndex2
									{
										OFFSET -3.283112 0.000000 0.000000
										CHANNELS 3 Xrotation Yrotation Zrotation
										JOINT RightHandIndex3
										{
											OFFSET -3.323853 0.000000 0.000000
											CHANNELS 3 Xrotation Yrotation Zrotation
											End Site
											{
												OFFSET 1.135597 3.097809 0.402452
											}
										}
									}
								}
								JOINT RightHandMiddle1
								{
									OFFSET -11.335861 0.000000 0.000000
									CHANNELS 3 Xrotation Yrotation Zrotation
									JOINT RightHandMiddle2
									{
										OFFSET -3.410492 0.000000 0.000000
										CHANNELS 3 Xrotation Yrotation Zrotation
										JOINT RightHandMiddle3
										{
											OFFSET -3.312172 0.000000 0.000000
											CHANNELS 3 Xrotation Yrotation Zrotation
											End Site
											{
												OFFSET 1.150200 3.080154 0.400270
											}
										}
									}
								}
								JOINT RightHandRing1
								{
									OFFSET -11.514786 -0.013176 -3.003090
									CHANNELS 3 Xrotation Yrotation Zrotation
									JOINT RightHandRing2
									{
										OFFSET -3.053307 0.000000 0.000000
										CHANNELS 3 Xrotation Yrotation Zrotation
										JOINT RightHandRing3
										{
											OFFSET -3.295807 0.000000 0.000000
											CHANNELS 3 Xrotation Yrotation Zrotation
											End Site
											{
												OFFSET 1.281006 3.013344 0.375733
											}
										}
									}
								}
								JOINT RightHandPinky1
								{
									OFFSET -10.518692 -0.960396 -5.730441
									CHANNELS 3 Xrotation Yrotation Zrotation
									JOINT RightHandPinky2
									{
										OFFSET -2.861649 0.000000 0.000000
										CHANNELS 3 Xrotation Yrotation Zrotation
										JOINT RightHandPinky3
										{
											OFFSET -2.863380 0.000000 0.000000
											CHANNELS 3 Xrotation Yrotation Zrotation
											End Site
											{
												OFFSET 0.843597 2.711159 0.369971
											}
										}
									}
								}
							}
							JOINT RSleeve
							{
								OFFSET -6.676277 -0.344902 -1.011730
								CHANNELS 3 Xrotation Yrotation Zrotation
								End Site
								{
									OFFSET 0.000000 14.885353 0.000000
								}
							}
						}
					}
				}
				JOINT Backpack
				{
					OFFSET 0.000000 -2.471497 36.677502
					CHANNELS 3 Xrotation Yrotation Zrotation
					End Site
					{
						OFFSET 0.000000 20.427315 0.000000
					}
				}
				JOINT Hood
				{
					OFFSET 0.000000 18.754097 -10.431000
					CHANNELS 3 Xrotation Yrotation Zrotation
					JOINT Hood1
					{
						OFFSET 0.000000 -5.011002 -7.685901
						CHANNELS 3 Xrotation Yrotation Zrotation
						End Site
						{
							OFFSET 0.000000 9.175140 0.000000
						}
					}
				}
				JOINT LHoodieString
				{
					OFFSET 5.250500 16.397697 3.089900
					CHANNELS 3 Xrotation Yrotation Zrotation
					JOINT LHoodieString1
					{
						OFFSET 0.257700 -6.364304 3.694600
						CHANNELS 3 Xrotation Yrotation Zrotation
						JOINT LHoodieString2
						{
							OFFSET 0.000000 -9.643799 2.679100
							CHANNELS 3 Xrotation Yrotation Zrotation
							End Site
							{
								OFFSET 0.000000 10.009018 0.000000
							}
						}
					}
				}
				JOINT RHoodieString
				{
					OFFSET -5.250500 16.397697 3.089900
					CHANNELS 3 Xrotation Yrotation Zrotation
					JOINT RHoodieString1
					{
						OFFSET -0.257700 -6.364304 3.694600
						CHANNELS 3 Xrotation Yrotation Zrotation
						JOINT RHoodieString2
						{
							OFFSET 0.000000 -9.643799 2.679100
							CHANNELS 3 Xrotation Yrotation Zrotation
							End Site
							{
								OFFSET 0.000000 10.009018 0.000000
							}
						}
					}
				}
			}
			JOINT LBackpack_Strap
			{
				OFFSET 15.223200 -7.719803 -6.610900
				CHANNELS 3 Xrotation Yrotation Zrotation
				End Site
				{
					OFFSET 0.000000 16.040596 0.000000
				}
			}
			JOINT RBackpack_Strap
			{
				OFFSET -15.223000 -7.719803 -6.610900
				CHANNELS 3 Xrotation Yrotation Zrotation
				End Site
				{
					OFFSET 0.000000 16.040596 0.000000
				}
			}
		}
	}
	JOINT BoyFacialAnim_Joint
	{
		OFFSET 1.000000 -82.208099 -1.550900
		CHANNELS 3 Xrotation Yrotation Zrotation
		End Site
		{
			OFFSET 0.000000 30.012791 0.000000
		}
	}
}
MOTION
Frames: 4
Frame Time: 0.016667
-0.018141 77.758072 1.153664 26.285635 11.833992 2.185789 -0.000000 0.000000 -0.000000 -46.686860 8.595148 14.534142 42.497321 10.182297 -5.327340 8.240191 21.496212 -16.938963 0.000000 -0.000001 0.000001 0.000000 -0.000001 0.000000 0.000000 -0.000002 -0.000001 -64.165748 -12.108020 -11.511578 36.695628 3.990985 -4.525839 0.552499 -9.818865 -0.372237 -0.000000 0.000000 -0.000000 -0.000000 0.000000 -0.000000 -0.000000 -0.000000 -0.000000 11.253989 -1.515449 0.644311 9.276076 2.486270 -1.078453 9.399705 1.253079 -3.812947 -9.096159 7.493537 -0.883478 -27.171314 1.769072 -6.727665 0.000001 -0.000001 -0.000001 0.000001 -0.000001 -0.000001 0.000001 -0.000001 -0.000001 0.803795 0.857152 -9.303937 -29.535886 -3.682384 -62.075109 -0.000002 -41.672780 -0.000011 20.410297 8.999552 -6.096357 -6.000711 -6.126815 4.616734 7.450114 23.644283 2.310968 -0.000001 -0.000000 0.000004 1.311398 -4.551186 -15.849350 1.142356 3.477111 -36.365129 -0.000003 0.000000 -0.000002 0.477005 4.520332 -21.613213 1.655966 4.082393 -44.144452 -0.000000 -0.000001 -0.000003 2.993476 9.713610 -25.720744 1.694430 4.121557 -44.682230 -0.000002 0.000001 -0.000000 -10.154111 18.200873 -22.286624 1.656848 4.083319 -44.156842 0.000001 -0.000002 0.000005 0.000000 -0.000001 0.000002 5.720873 24.427844 1.421181 -24.663786 -14.041412 65.136434 -0.000003 37.034273 0.000008 11.717756 14.064660 -10.776514 -5.141685 1.887953 -6.280714 7.832935 -27.003860 -3.053106 -0.000001 -0.000001 -0.000001 9.420637 2.591780 6.997339 0.448785 -1.996463 25.335294 -0.000002 -0.000000 0.000004 0.141881 -3.212531 11.503923 0.448782 -1.996459 25.335328 -0.000001 0.000001 0.000002 1.475384 -6.489819 23.742069 0.450090 -1.999223 25.372795 -0.000001 -0.000003 -0.000002 -12.523759 -9.712298 30.059710 0.448779 -1.996472 25.335291 0.000000 -0.000001 -0.000003 -0.000001 -0.000000 -0.000000 0.000001 0.000000 -0.000000 0.000001 0.000000 -0.000000 0.000001 0.000000 -0.000000 0.000001 0.000000 -0.000000 0.000001 0.000000 0.000000 0.000001 0.000001 -0.000000 0.000001 0.000000 -0.000000 0.000001 0.000000 0.000000 0.000001 0.000001 -0.000000 -0.000000 -0.000000 -0.000000 -0.000000 -0.000000 -0.000000 -0.000000 0.000000 -0.000000 
-0.066584 78.565933 2.200756 26.209485 12.155791 2.429942 0.000000 -0.000000 0.000001 -46.924783 9.001401 13.304326 39.866124 10.165822 -5.318250 8.088508 23.000104 -17.493977 -0.000001 -0.000001 -0.000000 -0.000001 -0.000001 -0.000001 0.000000 0.000001 -0.000001 -61.773665 -12.261410 -11.470219 34.309461 4.207171 -4.535825 0.633322 -10.207656 -0.153527 -0.000000 -0.000000 -0.000000 -0.000000 -0.000000 -0.000000 -0.000000 -0.000000 -0.000000 10.879784 -1.035021 0.675108 9.270624 2.730509 -1.057022 9.403909 1.489580 -3.792869 -9.298692 7.419097 -1.033892 -26.919036 0.659608 -7.172824 -0.000000 0.000001 -0.000001 -0.000000 0.000001 -0.000001 -0.000000 0.000001 -0.000001 0.819693 0.837071 -9.277589 -28.935717 -1.468108 -61.169767 -0.000000 -41.886647 0.000001 28.314184 8.850574 -10.911702 -6.000707 -6.126808 4.616749 7.450111 23.644284 2.310961 0.000001 0.000000 -0.000005 1.332688 -4.478269 -16.588793 1.170437 3.514859 -36.825658 0.000001 0.000001 -0.000005 0.494558 4.563976 -22.073430 1.678330 4.105247 -44.457671 -0.000001 0.000000 0.000004 3.034030 9.729416 -26.036572 1.710888 4.138092 -44.910758 -0.000001 -0.000001 -0.000001 -10.114081 18.209732 -22.521289 1.669244 4.096016 -44.330721 0.000001 0.000001 -0.000000 0.000000 -0.000001 0.000002 5.725881 24.411902 1.390779 -24.662560 -15.375733 64.479964 -0.000006 37.223199 0.000003 10.068249 13.567031 -10.840916 -5.210753 2.102425 -6.162669 7.832935 -27.003860 -3.053105 -0.000001 0.000001 0.000002 9.420635 2.591771 6.997317 0.458720 -2.017281 25.618873 -0.000003 0.000002 0.000000 0.144102 -3.223364 11.639866 0.454450 -2.008364 25.497135 -0.000002 -0.000001 0.000001 1.483124 -6.495717 23.847368 0.454588 -2.008669 25.501534 0.000004 -0.000002 0.000000 -12.459869 -9.795178 30.147171 0.452426 -2.004156 25.439781 0.000000 -0.000001 -0.000003 -0.000001 -0.000001 0.000000 -0.000003 0.000000 -0.000000 -0.000003 0.000000 -0.000000 -0.000003 0.000000 -0.000000 -0.000003 0.000000 -0.000000 -0.000003 0.000000 0.000000 -0.000003 0.000000 -0.000000 -0.000003 0.000000 -0.000000 -0.000003 0.000000 0.000000 -0.000003 0.000000 -0.000000 -0.000004 -0.000000 -0.000000 -0.000004 -0.000000 -0.000000 0.000000 -0.000000 0.000001 
0.047448 79.296402 3.612312 26.025070 12.692755 2.584952 0.000001 0.000000 -0.000000 -46.753731 9.289842 12.253046 37.010217 9.827198 -5.297932 9.430242 24.452214 -18.749906 0.000001 0.000002 -0.000000 0.000001 0.000002 -0.000000 -0.000000 0.000002 0.000001 -59.292660 -12.531162 -11.714737 32.530241 4.112138 -4.545870 0.095426 -10.349837 0.200980 -0.000000 -0.000000 -0.000000 -0.000000 -0.000000 -0.000000 -0.000000 0.000000 0.000000 10.467577 -0.401634 0.807040 9.248248 2.964292 -0.996380 9.387519 1.751387 -3.651128 -9.472121 7.196016 -1.232979 -26.658554 -0.579038 -7.669380 0.000000 0.000001 0.000000 0.000000 0.000001 0.000000 0.000000 0.000001 0.000000 0.864102 0.779455 -9.200430 -27.914290 0.938285 -60.038490 -0.000001 -42.148865 0.000009 33.782805 8.315951 -15.356973 -6.000714 -6.126810 4.616749 7.450114 23.644284 2.310972 0.000001 0.000002 0.000000 1.391892 -4.291521 -18.495579 1.247195 3.614905 -38.060068 -0.000000 -0.000000 0.000002 0.543324 4.680227 -23.306999 1.740282 4.167288 -45.316540 -0.000002 0.000003 0.000000 3.145671 9.771623 -26.902665 1.757046 4.183765 -45.546949 -0.000000 0.000002 -0.000005 -10.003769 18.233531 -23.175411 1.704342 4.131520 -44.819749 -0.000002 0.000002 -0.000003 -0.000000 0.000000 0.000003 5.738789 24.365539 1.303485 -24.740736 -16.700518 63.463263 -0.000021 37.406508 0.000017 8.192600 12.947381 -10.997482 -5.403157 2.694638 -5.834629 7.832942 -27.003865 -3.053108 -0.000003 0.000001 -0.000001 9.420633 2.591785 6.997322 0.486707 -2.074630 26.402883 0.000002 -0.000001 0.000002 0.150460 -3.253691 12.020591 0.470598 -2.041887 25.954558 -0.000002 -0.000001 -0.000000 1.505059 -6.512332 24.145045 0.467525 -2.035549 25.867909 0.000001 -0.000002 0.000000 -12.276604 -10.030109 30.396944 0.462940 -2.026088 25.738847 -0.000001 0.000000 -0.000003 0.000001 0.000000 -0.000000 -0.000001 0.000001 -0.000001 -0.000001 0.000001 -0.000001 -0.000001 0.000001 -0.000001 -0.000001 0.000001 -0.000001 -0.000001 0.000001 -0.000000 0.000002 0.000001 -0.000000 -0.000001 0.000001 -0.000001 -0.000001 0.000001 -0.000000 0.000002 0.000001 -0.000000 -0.000004 0.000001 -0.000000 -0.000004 0.000001 -0.000000 0.000001 0.000000 -0.000000 
0.167867 79.962334 5.017157 25.743736 13.446282 2.668246 0.000001 0.000001 0.000000 -46.605471 9.481682 11.266457 34.040754 9.031720 -5.270841 11.205847 26.585200 -19.960762 0.000000 -0.000002 0.000000 0.000000 -0.000002 0.000000 0.000000 -0.000002 0.000000 -56.790383 -12.956997 -12.051549 30.873579 4.227244 -4.554235 -0.495404 -10.798754 0.547750 -0.000000 0.000002 -0.000000 -0.000000 0.000002 -0.000000 0.000000 0.000000 0.000000 10.128540 0.345961 1.017140 9.210893 3.190167 -0.903509 9.351828 2.036267 -3.375820 -9.624991 6.855362 -1.477742 -26.488034 -1.955140 -8.210934 0.000001 0.000001 -0.000000 0.000001 0.000001 -0.000000 0.000001 0.000001 -0.000000 0.932214 0.688367 -9.075184 -26.479330 3.102034 -58.698441 0.000009 -42.442990 0.000019 35.621469 7.717641 -18.708725 -6.000713 -6.126819 4.616725 7.450110 23.644283 2.310969 -0.000003 0.000000 0.000001 1.482830 -4.039556 -21.102383 1.362129 3.756769 -39.847679 -0.000002 -0.000001 -0.000000 0.618366 4.846616 -25.093458 1.834571 4.258226 -46.600079 0.000001 0.000002 -0.000003 3.311833 9.828174 -28.197169 1.828397 4.252388 -46.516798 0.000001 -0.000001 0.000001 -9.839225 18.267279 -24.172205 1.759096 4.185766 -45.574833 -0.000000 0.000001 0.000007 -0.000000 -0.000001 0.000005 5.756296 24.290974 1.165177 -24.886534 -18.127276 62.390179 0.000002 37.716701 -0.000017 6.128142 12.171669 -11.084179 -5.697774 3.587372 -5.334411 7.832937 -27.003860 -3.053109 -0.000000 -0.000000 0.000000 9.420644 2.591789 6.997329 0.530458 -2.160489 27.587336 -0.000005 -0.000002 0.000001 0.160635 -3.300168 12.605217 0.496249 -2.093724 26.665369 -0.000002 0.000002 0.000002 1.539363 -6.537902 24.607548 0.488131 -2.077491 26.442254 0.000001 -0.000001 0.000005 -11.985058 -10.395313 30.791080 0.479782 -2.060616 26.210842 -0.000003 -0.000003 -0.000000 -0.000001 0.000001 -0.000000 0.000001 -0.000001 0.000000 0.000001 -0.000001 0.000000 0.000001 -0.000001 0.000000 0.000001 -0.000001 0.000000 0.000001 -0.000001 0.000001 0.000003 0.000000 0.000001 0.000001 -0.000001 0.000000 0.000001 -0.000001 0.000001 0.000003 0.000000 0.000001 -0.000000 0.000000 -0.000001 -0.000000 0.000000 -0.000001 0.000001 0.000001 0.000000 
